<svg width="108" height="94" viewBox="0 0 108 94" fill="none" xmlns="http://www.w3.org/2000/svg">
<mask id="mask0_1328_71" style="mask-type:alpha" maskUnits="userSpaceOnUse" x="0" y="0" width="108" height="94">
<rect width="108" height="94" fill="black"/>
<rect x="0.5" y="0.5" width="107" height="93" stroke="url(#paint0_linear_1328_71)" stroke-opacity="0.33"/>
</mask>
<g mask="url(#mask0_1328_71)">
<path fill-rule="evenodd" clip-rule="evenodd" d="M16.8063 40.2612C26.1567 47.9079 37.4172 57.0672 41.829 60.6139L49.8491 67.0613L38.6553 91.5232C32.498 104.976 27.6279 116.565 27.8333 117.273C28.0386 117.982 29.7049 118.128 31.5342 117.598C34.0846 116.858 37.0374 111.941 44.1575 96.5838C49.2684 85.5565 53.9438 75.5194 54.5465 74.2798C55.4207 72.4785 58.1232 74.079 67.9415 82.2134C74.7062 87.8164 82.6931 94.1848 85.6898 96.3619L91.1388 100.321L103.974 96.6011C111.033 94.5548 116.66 92.3671 116.478 91.7404C116.296 91.1122 112.83 87.9635 108.774 84.742C104.72 81.5201 93.4191 72.2941 83.6637 64.239L65.9257 49.5957L70.6205 39.2177C73.2041 33.5105 78.0839 22.8839 81.4672 15.6023C84.849 8.32114 87.5292 2.06011 87.4222 1.69086C87.3148 1.32025 85.2469 1.63899 82.825 2.39857C78.9082 3.62839 77.4378 5.99834 69.481 23.9079C64.5624 34.977 60.2358 44.1375 59.8657 44.2625C59.4956 44.3875 52.1652 38.5969 43.576 31.3943L27.9592 18.2985L13.8822 22.327L-0.195801 26.3573L16.8063 40.2612ZM64.0523 57.6922C85.0502 74.615 102.305 88.722 102.398 89.0421C102.49 89.3623 100.26 90.2673 97.4396 91.0538C93.0196 92.2862 91.5703 91.8791 86.9175 88.0922C83.9491 85.6765 66.3769 71.4829 47.8676 56.5491L14.2158 29.3968L20.0458 28.1604L25.8757 26.9241L64.0523 57.6922Z" fill="white"/>
</g>
<defs>
<linearGradient id="paint0_linear_1328_71" x1="-5.9329e-07" y1="6.53277" x2="72.1442" y2="111.995" gradientUnits="userSpaceOnUse">
<stop stop-color="white"/>
<stop offset="1" stop-color="#676767"/>
</linearGradient>
</defs>
</svg>
