<svg width="60" height="60" viewBox="0 0 60 60" fill="none" xmlns="http://www.w3.org/2000/svg">
<circle cx="29.8432" cy="30.4028" r="29.0385" stroke="#88E272"/>
<path d="M17.0407 31.1274C17.041 31.1277 17.0413 31.128 17.0417 31.1283L22.3905 36.4514C22.7912 36.8502 23.4393 36.8487 23.8382 36.4479C24.237 36.0472 24.2355 35.3991 23.8348 35.0002L20.2436 31.4264H41.9226C42.488 31.4264 42.9463 30.9681 42.9463 30.4028C42.9463 29.8374 42.488 29.3791 41.9226 29.3791H20.2436L23.8347 25.8053C24.2355 25.4065 24.237 24.7583 23.8382 24.3576C23.4393 23.9568 22.7911 23.9554 22.3905 24.3541L17.0416 29.6772C17.0413 29.6775 17.041 29.6779 17.0407 29.6782C16.6398 30.0783 16.641 30.7285 17.0407 31.1274Z" fill="url(#paint0_linear_1254_1076)"/>
<defs>
<linearGradient id="paint0_linear_1254_1076" x1="15.1841" y1="24.9896" x2="23.7386" y2="47.8033" gradientUnits="userSpaceOnUse">
<stop stop-color="#88E272"/>
<stop offset="1" stop-color="#F6FFF4"/>
</linearGradient>
</defs>
</svg>
