<svg width="60" height="60" viewBox="0 0 60 60" fill="none" xmlns="http://www.w3.org/2000/svg">
<circle cx="30.3432" cy="30.4028" r="29.0385" stroke="#88E272"/>
<path d="M43.1458 29.6782C43.1455 29.6779 43.1452 29.6775 43.1449 29.6772L37.796 24.3541C37.3953 23.9554 36.7472 23.9569 36.3483 24.3576C35.9495 24.7583 35.951 25.4065 36.3517 25.8053L39.943 29.3791H18.2639C17.6985 29.3791 17.2402 29.8374 17.2402 30.4028C17.2402 30.9681 17.6985 31.4264 18.2639 31.4264H39.9429L36.3518 35.0003C35.9511 35.3991 35.9495 36.0472 36.3484 36.4479C36.7472 36.8487 37.3954 36.8501 37.7961 36.4514L43.1449 31.1283C43.1452 31.128 43.1455 31.1277 43.1458 31.1274C43.5468 30.7272 43.5455 30.077 43.1458 29.6782Z" fill="url(#paint0_linear_1254_1070)"/>
<defs>
<linearGradient id="paint0_linear_1254_1070" x1="45.0025" y1="35.8159" x2="36.4479" y2="13.0023" gradientUnits="userSpaceOnUse">
<stop stop-color="#88E272"/>
<stop offset="1" stop-color="#F6FFF4"/>
</linearGradient>
</defs>
</svg>
