<svg width="189" height="58" viewBox="0 0 189 58" fill="none" xmlns="http://www.w3.org/2000/svg">
<path d="M79.3755 31.0089V35.0162H64.5429C64.5429 28.5322 64.5429 22.0203 64.5429 15.5362H78.9859V19.5157H68.8007V23.2726H78.4015V27.0851H68.8007V31.0089H79.3755ZM104.289 35.0162L102.87 31.6768H92.8793L91.4601 35.0162H86.7849L95.523 15.5362H100.254L108.992 35.0162H104.289ZM101.228 27.8365L97.8885 19.9332L94.5212 27.8365H101.228ZM134.595 34.6823V35.0162H129.781L124.8 28.6157H121.655V35.0162H117.314V15.5362C120.486 15.5362 123.408 15.5362 126.553 15.5362C131.256 15.5362 133.761 18.6809 133.761 22.1038C133.733 24.6362 132.981 26.8903 129.252 28.2261L134.595 34.6823ZM126.553 19.2653H121.655V24.9423H126.609C128.612 24.9423 129.475 23.4396 129.475 22.2151C129.447 20.8793 128.584 19.2653 126.553 19.2653ZM147.698 35.0162V19.4044H141.771V15.5362C147.448 15.5362 152.234 15.5362 157.939 15.5362V19.4044H152.012V35.0162H147.698ZM184.188 35.0441H179.902V27.3356H171.192V35.0441H166.851V15.5641H171.192V23.3561H179.902V15.5641H184.188V35.0441Z" fill="#88E272"/>
<path d="M37.6876 20.1797L28.8916 28.7533L35.4685 38.2794C32.9853 42.3545 28.8431 50.8222 32.14 52.0923C41.777 51.4573 48.6283 43.1826 51.6734 34.6113L52.35 30.3409L51.7944 26.0542L48.1488 19.3859L37.6876 20.1797Z" fill="url(#paint0_linear_1254_833)"/>
<path d="M1.71166 22.2053C3.11154 17.6558 14.474 25.0231 20.1751 30.0076C28.2961 27.858 40.0198 26.7745 41.3644 34.7385C42.9309 44.0172 36.6289 50.8247 33.5159 51.9795C13.2153 56.8291 -3.25075 38.333 1.71166 22.2053Z" fill="url(#paint1_linear_1254_833)"/>
<path d="M1.37287 20.8519C1.94207 17.9459 4.55577 13.0716 5.6251 11.4391C2.11167 20.163 12.9576 21.2345 19.679 9.60247C25.756 -0.914163 31.2889 1.03159 33.7331 1.03159C35.6884 1.03159 39.7417 3.37838 41.5239 4.55177C41.1675 4.6538 40.5768 5.13337 41.0656 6.23534C41.7989 7.70463 43.3061 7.25568 43.9681 6.84755L46.2595 9.29636L45.5729 9.75564L40.0736 14.5002L38.3159 13.7349L37.7821 12.6636L38.927 9.75552V8.07195C38.927 7.76585 38.5459 7.70475 36.1018 7.45987C33.6576 7.21499 28.244 13.5723 25.749 16.8884C22.2355 21.9391 19.1451 27.9688 11.6599 29.3462C4.17467 30.7237 0.533454 25.1374 1.37287 20.8519Z" fill="url(#paint2_linear_1254_833)"/>
<path opacity="0.05" d="M16.5796 38.5853C14.78 39.0681 13.3869 38.7359 11.73 38.5853L27.7332 29.165C29.5407 27.8095 38.7291 27.96 40.9885 33.232C29.3901 26.3031 25.8276 36.1041 16.5796 38.5853Z" fill="black"/>
<path d="M34.305 1.07749C18.854 -2.26829 8.65508 6.79022 5.54586 11.491C5.18907 12.3503 4.5014 14.179 4.86839 15.6347C5.32713 17.4544 6.78072 19.1224 11.521 17.7576C15.3132 16.6658 19.5913 10.137 21.2224 7.20531C26.4214 0.533252 30.0234 1.07749 34.305 1.07749Z" fill="url(#paint3_radial_1254_833)"/>
<path opacity="0.05" d="M49.9816 24.9118C43.9565 21.5378 36.6656 25.7508 33.8539 28.5625L29.9924 28.5625C29.3397 28.3617 29.4803 27.0864 35.2644 23.5918C42.4946 19.2236 46.5982 20.4006 49.9816 24.9118Z" fill="black"/>
<path fill-rule="evenodd" clip-rule="evenodd" d="M1.37289 20.5132C-0.152585 26.4626 0.563559 37.8209 12.8894 38.5531C19.9451 38.5531 29.3113 29.4465 34.1885 24.7046C34.4783 24.4229 34.7522 24.1566 35.0088 23.9085C38.7717 21.2135 47.2126 17.8066 50.8738 25.7391C52.2467 28.3324 52.0942 30.6206 51.484 35.0445C54.0513 28.3511 52.9262 21.6026 50.8248 16.5546C50.839 16.5707 50.8525 16.5836 50.8651 16.5932L50.8039 16.5044C50.7264 16.3194 50.6477 16.1366 50.5678 15.9563C50.4647 15.5304 50.4105 14.8877 50.5267 13.9992C50.6395 13.1375 51.4025 12.759 52.1905 12.3681C53.2934 11.821 54.4451 11.2497 53.9311 9.29572C53.2925 6.86827 48.3483 8.15895 46.1655 9.28299C46.1586 9.27661 46.1517 9.27026 46.1448 9.26393C44.0701 10.6064 42.026 12.264 41.2633 12.9251C40.2971 13.5861 38.3344 14.5421 38.2123 13.0776C38.0996 12.8522 38.2992 12.2312 38.5419 11.4761C38.9561 10.1873 39.4958 8.50798 38.8225 7.73843C37.736 6.49662 35.7715 5.90788 31.5002 9.41648C29.4965 11.0624 27.0228 14.3533 24.52 17.6828C21.6877 21.4507 18.8181 25.2682 16.5505 26.8069C13.1945 30.1629 0.305066 31.6492 1.37289 20.5132Z" fill="url(#paint4_linear_1254_833)"/>
<ellipse cx="42.2" cy="5.96488" rx="2.03006" ry="1.91728" fill="url(#paint5_linear_1254_833)"/>
<defs>
<linearGradient id="paint0_linear_1254_833" x1="53.6181" y1="17.6394" x2="36.1493" y2="37.7741" gradientUnits="userSpaceOnUse">
<stop stop-color="#F7E275"/>
<stop offset="1" stop-color="#83E430"/>
</linearGradient>
<linearGradient id="paint1_linear_1254_833" x1="42.8578" y1="28.548" x2="2.25662" y2="31.7059" gradientUnits="userSpaceOnUse">
<stop stop-color="#00B53D"/>
<stop offset="1" stop-color="#DBC976"/>
</linearGradient>
<linearGradient id="paint2_linear_1254_833" x1="24.1866" y1="5.01105" x2="31.3883" y2="19.5401" gradientUnits="userSpaceOnUse">
<stop stop-color="#4DE8B0"/>
<stop offset="0.927083" stop-color="#00B856"/>
</linearGradient>
<radialGradient id="paint3_radial_1254_833" cx="0" cy="0" r="1" gradientUnits="userSpaceOnUse" gradientTransform="translate(16.5672 4.26187) rotate(105.648) scale(14.1727 23.2211)">
<stop stop-color="#E7FFEA"/>
<stop offset="0.927083" stop-color="#90EFB6"/>
</radialGradient>
<linearGradient id="paint4_linear_1254_833" x1="52.8256" y1="16.4337" x2="3.746" y2="8.21302" gradientUnits="userSpaceOnUse">
<stop stop-color="#54DF9F"/>
<stop offset="0.374317" stop-color="#CAFFC6"/>
<stop offset="0.940618" stop-color="#85FFB4"/>
</linearGradient>
<linearGradient id="paint5_linear_1254_833" x1="44.1362" y1="5.21335" x2="33.587" y2="3.65835" gradientUnits="userSpaceOnUse">
<stop stop-color="#6AE176"/>
<stop offset="0.374317" stop-color="#BFFFBA"/>
<stop offset="0.940618" stop-color="#49BF1F"/>
</linearGradient>
</defs>
</svg>
