<svg width="85" height="90" viewBox="0 0 85 90" fill="none" xmlns="http://www.w3.org/2000/svg">
<path fill-rule="evenodd" clip-rule="evenodd" d="M17.8063 39.2613C27.1567 46.9079 38.4172 56.0673 42.829 59.6139L50.8491 66.0613L39.6553 90.5232C33.498 103.976 28.6279 115.565 28.8333 116.273C29.0386 116.982 30.7049 117.128 32.5342 116.598C35.0846 115.858 38.0374 110.941 45.1575 95.5839C50.2684 84.5565 54.9438 74.5194 55.5465 73.2798C56.4207 71.4785 59.1232 73.0791 68.9415 81.2134C75.7062 86.8165 83.6931 93.1849 86.6898 95.3619L92.1388 99.3213L104.974 95.6011C112.033 93.5549 117.66 91.3672 117.478 90.7404C117.296 90.1123 113.83 86.9635 109.774 83.742C105.72 80.5202 94.4191 71.2942 84.6637 63.2391L66.9257 48.5958L71.6205 38.2178C74.2041 32.5106 79.0839 21.884 82.4672 14.6024C85.849 7.32117 88.5292 1.06014 88.4222 0.690889C88.3148 0.320276 86.2469 0.639024 83.825 1.3986C79.9082 2.62842 78.4378 4.99838 70.481 22.9079C65.5624 33.977 61.2358 43.1376 60.8657 43.2626C60.4956 43.3876 53.1652 37.5969 44.576 30.3943L28.9592 17.2985L14.8822 21.327L0.804199 25.3573L17.8063 39.2613ZM65.0523 56.6922C86.0502 73.615 103.305 87.722 103.398 88.0422C103.49 88.3624 101.26 89.2674 98.4396 90.0538C94.0196 91.2862 92.5703 90.8792 87.9175 87.0922C84.9491 84.6765 67.3769 70.4829 48.8676 55.5492L15.2158 28.3968L21.0458 27.1605L26.8757 25.9241L65.0523 56.6922Z" fill="#88E273"/>
</svg>
